{"glyphs":{"0":{"ha":644,"x_min":58,"x_max":686,"o":"m 301 0 q 166 38 226 0 q 78 143 106 76 q 61 207 64 174 q 63 283 58 240 l 93 571 q 106 641 97 611 q 133 703 115 671 l 136 713 l 156 743 l 156 747 q 168 774 161 761 q 183 803 175 788 q 296 910 226 868 q 440 949 365 949 q 576 910 514 949 q 628 863 606 890 q 665 803 651 836 q 683 736 679 769 q 682 661 686 703 l 651 372 q 635 296 646 329 q 606 231 625 263 l 589 207 l 567 165 l 553 143 q 444 38 511 76 q 301 0 376 0 m 438 919 q 308 885 369 919 q 208 790 247 850 q 181 731 190 761 q 168 661 172 701 l 138 372 q 137 303 133 333 q 151 244 140 272 q 231 150 178 185 q 353 115 285 115 q 481 150 419 115 q 581 244 542 185 q 608 303 599 272 q 622 372 618 333 l 653 661 q 653 731 657 701 q 638 790 649 761 q 558 885 611 850 q 438 919 504 919 m 371 278 q 318 301 339 278 q 301 357 297 325 l 333 663 q 340 699 335 679 q 367 736 344 718 q 421 756 390 756 q 473 733 453 756 q 490 678 493 710 l 458 371 q 451 336 456 356 q 422 297 446 317 q 371 278 399 278 m 414 588 q 403 625 417 610 q 368 640 389 640 q 365 640 365 640 q 363 639 364 639 l 360 639 l 331 357 q 341 323 328 338 q 374 308 354 308 q 385 310 381 308 l 414 588 z "},"1":{"ha":442,"x_min":103,"x_max":500,"o":"m 169 936 l 171 947 l 500 947 l 410 86 l 403 86 l 357 0 l 142 0 l 208 639 l 103 639 l 125 854 l 169 936 m 181 754 l 286 754 l 218 115 l 382 115 l 467 918 l 197 918 l 181 754 z "},"2":{"ha":644,"x_min":36,"x_max":689,"o":"m 376 322 q 365 321 371 321 q 353 321 360 321 q 340 321 346 321 q 328 318 335 321 l 329 318 q 328 313 328 317 l 328 310 l 647 310 l 624 86 l 617 86 l 571 0 l 36 0 l 65 278 q 77 327 68 301 q 99 378 86 353 l 126 424 q 149 474 135 450 q 181 518 164 497 q 258 585 215 560 l 96 585 l 96 586 q 138 704 108 651 l 165 756 q 208 832 185 803 q 250 876 231 861 q 344 929 293 911 q 446 947 394 947 q 576 913 519 947 q 664 814 633 878 q 684 749 679 785 q 686 676 689 714 q 667 599 682 638 q 624 526 651 561 l 596 475 q 570 436 585 456 q 538 399 556 417 q 462 348 500 367 q 376 322 424 329 m 401 628 q 371 638 390 638 q 351 634 364 638 q 326 615 338 631 q 363 624 346 622 q 401 628 381 626 m 326 585 q 258 551 289 572 q 201 501 226 529 q 140 367 153 440 l 114 115 l 597 115 l 615 279 l 296 279 l 299 313 q 306 363 301 338 q 324 403 310 388 q 368 432 346 428 q 406 436 390 436 q 415 436 410 436 q 424 438 419 436 q 503 460 468 444 q 569 507 538 475 q 622 572 601 536 q 652 647 643 608 q 657 724 661 685 q 636 797 653 763 q 558 887 608 856 q 443 918 508 918 q 351 901 397 918 q 268 854 306 885 q 176 700 194 789 l 343 700 q 374 738 354 724 q 422 753 394 753 q 479 729 458 753 q 492 672 499 706 q 462 619 486 640 q 403 599 438 599 q 326 585 360 597 z "},"3":{"ha":644,"x_min":54,"x_max":686,"o":"m 682 676 q 622 532 674 599 l 613 515 q 649 358 657 440 q 626 276 642 311 q 611 247 619 261 q 592 219 603 233 l 563 167 q 486 74 535 114 q 385 15 438 33 q 340 4 361 8 q 299 0 319 0 q 201 20 247 0 q 119 76 154 40 l 119 75 l 118 78 q 70 161 86 113 q 57 269 54 210 l 103 353 q 102 358 101 356 q 103 363 103 360 l 103 364 l 175 364 l 193 535 l 222 586 l 90 586 l 90 588 q 106 640 97 615 q 128 688 114 664 q 131 694 128 692 l 136 706 l 136 704 l 158 747 q 208 830 178 793 q 275 893 239 867 q 353 934 311 919 q 438 949 394 949 q 522 935 486 949 q 622 866 581 914 q 678 758 664 818 q 682 676 686 721 m 588 532 q 643 635 628 579 q 647 749 658 692 q 600 847 636 806 q 510 907 564 888 q 435 919 474 919 q 344 903 388 919 q 266 857 301 886 q 206 788 231 828 q 172 701 182 749 l 338 701 q 371 740 349 725 q 418 756 393 756 q 471 732 450 756 q 476 647 501 694 q 445 612 465 625 q 401 599 425 599 l 267 599 l 250 436 l 360 436 q 403 432 379 436 q 442 410 426 428 q 450 339 461 379 q 428 306 442 319 q 396 286 414 292 q 368 281 385 281 q 323 295 342 281 q 299 333 304 310 l 133 333 q 146 253 131 290 q 189 186 161 217 q 260 134 218 153 q 350 115 301 115 q 428 129 388 115 q 531 188 486 147 q 599 286 575 228 q 619 400 622 344 q 585 503 615 456 l 576 518 l 588 532 m 396 629 q 365 640 382 640 q 335 629 353 640 l 396 629 z "},"4":{"ha":644,"x_min":85,"x_max":710,"o":"m 486 949 l 710 949 l 619 86 l 613 86 l 567 0 l 351 0 l 379 265 q 283 272 329 265 q 193 306 236 278 q 90 458 110 360 q 88 533 85 488 q 96 617 92 578 l 121 854 l 165 936 l 167 949 l 390 949 l 361 671 q 358 621 358 635 q 360 603 358 607 q 411 574 368 574 l 440 854 l 485 936 l 486 949 m 435 544 l 425 544 q 419 544 422 544 q 413 543 415 543 q 396 544 407 543 q 372 549 385 544 q 348 563 360 553 q 331 590 336 572 q 328 624 328 600 q 336 707 329 647 l 358 918 l 194 918 l 174 719 q 173 713 174 717 q 172 706 172 708 q 167 667 169 688 q 164 625 165 646 q 163 586 163 604 q 167 556 164 568 q 197 475 175 507 q 258 417 218 443 q 342 385 299 389 q 432 381 385 381 l 457 381 l 429 115 l 592 115 l 676 918 l 514 918 l 475 544 l 435 544 z "},"5":{"ha":644,"x_min":64,"x_max":717,"o":"m 172 947 l 717 947 l 693 726 l 686 726 l 640 640 l 365 640 l 364 629 l 368 629 q 517 606 464 629 q 631 497 596 569 q 654 358 661 433 q 633 279 650 319 q 589 203 615 239 l 585 196 l 571 171 l 574 172 l 563 156 q 545 126 556 140 q 524 99 535 113 q 423 26 479 51 q 308 0 367 0 q 211 19 258 0 q 129 74 164 39 q 81 158 97 106 q 65 269 64 210 l 93 319 l 71 319 l 126 854 l 171 936 l 172 947 m 332 600 l 349 756 l 668 756 l 685 918 l 200 918 l 149 435 l 382 435 q 431 422 410 435 q 460 388 451 410 q 438 307 474 344 q 376 279 410 279 q 331 294 350 279 q 307 333 313 310 l 142 333 q 199 182 139 239 q 271 133 229 150 q 360 115 313 115 q 464 138 414 115 q 554 204 514 161 q 622 340 608 264 q 603 482 635 417 q 563 540 586 518 q 503 579 539 563 q 442 597 475 593 q 365 600 410 600 l 332 600 z "},"6":{"ha":644,"x_min":57,"x_max":685,"o":"m 542 129 q 435 35 499 69 q 301 0 371 0 q 151 49 217 0 l 150 49 q 64 193 79 106 q 59 256 57 225 q 67 318 61 286 l 88 517 q 101 613 93 567 q 132 701 108 660 l 158 751 q 249 875 185 822 q 438 949 333 949 q 535 928 488 949 q 619 872 583 908 q 668 785 651 836 q 683 672 685 733 l 683 671 l 678 671 l 631 586 l 551 586 q 614 514 586 561 q 650 358 658 443 q 632 285 646 321 q 596 217 618 249 l 585 201 l 564 164 l 564 165 l 560 158 q 553 146 557 151 q 546 135 549 140 q 542 129 542 131 m 265 854 q 215 799 233 826 q 185 740 196 771 q 170 676 175 710 q 161 606 165 643 l 140 406 q 135 347 138 375 q 139 289 132 318 q 217 160 151 210 q 280 126 244 138 q 353 115 315 115 q 476 146 419 115 q 571 233 532 176 q 621 366 615 294 q 590 497 626 438 q 542 552 568 532 q 487 583 517 572 q 423 596 457 593 q 350 599 389 599 l 325 599 l 329 638 q 339 696 331 665 q 382 743 347 726 q 419 754 397 754 q 463 740 444 754 q 488 701 482 725 l 654 701 q 596 851 657 789 q 522 901 564 883 q 435 918 481 918 q 265 854 344 918 m 358 628 q 376 628 368 628 q 394 626 385 628 q 367 639 382 639 q 365 638 365 639 q 361 638 364 638 q 360 636 361 636 l 358 628 m 311 308 q 300 354 299 326 q 304 400 301 382 l 307 435 l 342 435 q 352 436 347 436 q 361 436 357 436 q 432 418 410 436 q 456 360 458 397 q 426 301 453 326 q 369 279 401 279 q 311 308 332 279 m 349 315 q 361 310 353 313 q 356 313 358 311 q 349 315 353 314 z "},"7":{"ha":644,"x_min":96,"x_max":708,"o":"m 164 935 l 165 947 l 708 947 l 686 729 l 449 86 l 443 86 l 397 0 l 175 0 l 410 639 l 96 639 l 119 854 l 164 935 m 675 918 l 192 918 l 175 754 l 494 754 l 260 115 l 429 115 l 656 732 l 675 918 z "},"8":{"ha":644,"x_min":51,"x_max":689,"o":"m 624 531 l 613 513 q 649 360 657 438 q 606 236 642 297 q 596 219 601 228 q 583 203 590 211 l 565 171 l 568 172 l 557 156 l 554 149 q 444 39 511 78 q 299 0 376 0 q 164 40 225 0 q 75 149 103 81 q 58 269 51 208 q 93 376 64 325 l 121 428 q 125 436 121 432 q 92 586 83 501 q 103 642 94 614 q 129 697 113 669 l 133 706 l 154 742 q 165 770 160 757 q 181 796 171 783 q 292 906 222 864 q 364 937 326 926 q 438 947 401 947 q 576 907 515 947 q 665 796 635 869 q 682 675 689 738 q 663 601 678 638 q 624 532 649 564 l 624 531 m 589 532 q 649 654 636 588 q 638 785 661 721 q 558 883 611 847 q 435 918 506 918 q 303 883 364 918 q 206 785 243 847 q 165 656 167 722 q 201 532 164 589 l 211 517 l 199 503 q 138 379 150 446 q 149 250 125 313 q 226 151 174 186 q 350 115 279 115 q 481 151 421 115 q 581 250 542 186 q 621 379 619 313 q 586 503 622 446 l 575 517 l 589 532 m 418 754 q 470 731 450 754 q 488 676 490 708 q 458 622 483 644 q 401 599 433 599 q 349 622 369 599 q 332 676 329 644 q 360 731 335 708 q 418 754 386 754 m 394 631 q 376 639 389 636 q 394 631 385 632 m 383 435 q 436 413 415 435 q 454 357 457 390 q 425 302 450 325 q 368 279 400 279 q 315 302 336 279 q 299 357 294 325 q 326 412 301 389 q 383 435 351 435 m 361 311 q 343 319 353 318 q 361 311 349 314 z "},"9":{"ha":644,"x_min":58,"x_max":685,"o":"m 679 754 q 683 697 685 725 q 678 640 681 669 l 656 429 q 635 313 649 369 q 582 204 622 257 l 556 154 q 488 72 533 113 q 398 19 446 38 q 301 0 350 0 q 203 19 250 0 q 121 75 157 39 q 58 269 58 144 l 60 269 l 106 353 q 105 358 104 356 q 106 363 106 360 l 106 364 l 188 364 q 152 397 168 379 q 125 435 136 414 q 97 508 106 468 q 93 589 89 547 q 128 699 100 644 q 132 706 131 704 l 132 704 l 156 749 q 172 786 163 769 q 192 818 181 803 q 300 915 236 881 q 438 949 364 949 q 520 935 479 949 q 593 899 561 922 q 647 836 625 874 q 679 754 669 799 m 385 321 q 365 321 374 321 q 346 322 357 321 q 372 311 356 311 q 382 313 378 311 l 383 313 l 385 321 m 135 333 q 190 183 132 246 q 265 133 222 151 q 353 115 307 115 q 441 132 397 115 q 521 181 485 149 q 573 235 554 207 q 603 294 592 264 q 618 358 614 325 q 626 429 622 392 l 647 629 q 648 635 647 632 q 649 640 649 638 q 653 694 651 668 q 650 746 654 719 q 622 819 642 786 q 572 875 601 851 q 510 908 544 896 q 435 919 475 919 q 313 889 369 919 q 215 801 256 858 q 167 668 172 739 q 199 539 163 597 q 245 483 219 503 q 301 452 271 463 q 365 439 331 442 q 439 436 400 436 l 464 436 l 458 396 q 456 370 458 385 q 449 341 454 356 q 434 313 444 326 q 407 290 424 299 q 369 281 388 281 q 325 295 344 281 q 300 333 306 310 l 135 333 m 419 756 q 475 726 457 756 q 488 683 489 710 q 485 635 488 657 l 481 600 l 428 600 q 388 603 407 600 q 356 617 368 606 q 338 642 343 628 q 332 674 332 657 q 361 733 335 708 q 419 756 388 756 m 390 633 q 378 640 386 638 q 390 633 382 636 z "},"\u0000":{"ha":0,"x_min":0,"x_max":0,"o":""},"\r":{"ha":429,"x_min":0,"x_max":0,"o":""}," ":{"ha":429,"x_min":0,"x_max":0,"o":""},"G":{"ha":644,"x_min":60,"x_max":685,"o":"m 676 672 l 653 629 l 678 629 l 650 357 q 629 278 644 317 q 586 204 614 240 l 560 158 q 451 43 519 86 q 303 0 382 0 q 222 13 260 0 q 123 76 164 32 q 67 181 82 121 q 60 240 60 211 q 64 303 61 269 l 90 551 q 100 615 94 586 q 119 675 106 644 q 124 687 122 682 q 129 699 126 692 l 157 747 l 165 767 q 243 872 193 826 q 358 936 293 917 q 401 945 381 943 q 442 947 421 947 q 538 926 493 947 q 615 867 582 904 q 666 781 647 831 q 683 672 685 731 l 676 672 m 439 918 q 364 908 403 918 q 262 850 307 890 q 193 757 217 810 q 175 701 181 729 q 167 642 169 674 l 140 392 q 137 333 138 361 q 143 278 136 306 q 192 184 156 224 q 282 126 229 144 q 318 118 301 121 q 354 115 335 115 q 449 134 404 115 q 531 186 494 153 q 592 263 568 219 q 621 357 615 307 l 646 599 l 354 599 l 336 435 l 464 435 l 457 357 q 429 303 453 325 q 374 279 406 281 l 371 279 q 319 300 339 279 q 300 351 299 321 q 303 395 300 374 q 308 436 306 417 q 309 450 308 443 q 311 464 310 457 q 315 491 314 478 q 318 517 315 504 q 320 544 319 531 q 322 569 321 557 q 323 583 322 576 q 325 597 324 590 q 329 639 328 618 q 335 683 331 660 q 365 733 340 713 q 421 754 390 754 l 424 754 q 465 739 447 753 q 489 701 482 725 l 656 701 q 639 787 656 747 q 593 856 622 826 q 524 901 564 885 q 439 918 485 918 m 386 319 l 344 319 q 375 310 356 310 q 385 311 382 310 l 386 319 z "},"F":{"ha":644,"x_min":32,"x_max":710,"o":"m 293 86 l 247 0 l 32 0 l 121 854 l 165 935 l 167 947 l 710 947 l 686 724 l 679 724 l 633 639 l 358 639 l 357 628 l 676 628 l 653 404 l 646 404 l 600 319 l 325 319 l 300 86 l 293 86 m 194 918 l 110 115 l 274 115 l 307 435 l 626 435 l 644 599 l 325 599 l 342 754 l 661 754 l 678 918 l 194 918 z "},"O":{"ha":644,"x_min":58,"x_max":686,"o":"m 301 0 q 166 38 226 0 q 78 143 106 76 q 61 207 64 174 q 63 283 58 240 l 93 571 q 106 641 97 611 q 133 703 115 671 l 136 713 l 156 743 l 156 747 q 168 774 161 761 q 183 803 175 788 q 296 910 226 868 q 440 949 365 949 q 576 910 514 949 q 628 863 606 890 q 665 803 651 836 q 683 736 679 769 q 682 661 686 703 l 651 372 q 635 296 646 329 q 606 231 625 263 l 589 207 l 567 165 l 553 143 q 444 38 511 76 q 301 0 376 0 m 438 919 q 308 885 369 919 q 208 790 247 850 q 181 731 190 761 q 168 661 172 701 l 138 372 q 137 303 133 333 q 151 244 140 272 q 231 150 178 185 q 353 115 285 115 q 481 150 419 115 q 581 244 542 185 q 608 303 599 272 q 622 372 618 333 l 653 661 q 653 731 657 701 q 638 790 649 761 q 558 885 611 850 q 438 919 504 919 m 371 278 q 318 301 339 278 q 301 357 297 325 l 333 663 q 340 699 335 679 q 367 736 344 718 q 421 756 390 756 q 473 733 453 756 q 490 678 493 710 l 458 371 q 451 336 456 356 q 422 297 446 317 q 371 278 399 278 m 414 588 q 403 625 417 610 q 368 640 389 640 q 365 640 365 640 q 363 639 364 639 l 360 639 l 331 357 q 341 323 328 338 q 374 308 354 308 q 385 310 381 308 l 414 588 z "},"E":{"ha":644,"x_min":35,"x_max":713,"o":"m 615 86 l 569 0 l 35 0 l 124 856 l 168 935 l 169 949 l 713 949 l 689 725 l 682 725 l 636 639 l 361 639 l 360 629 l 679 629 l 656 406 l 649 406 l 603 319 l 328 319 l 326 310 l 646 310 l 622 86 l 615 86 m 196 919 l 111 115 l 596 115 l 614 279 l 293 279 l 308 435 l 629 435 l 647 599 l 326 599 l 343 756 l 664 756 l 681 919 l 196 919 z "},"I":{"ha":347,"x_min":46,"x_max":404,"o":"m 308 85 l 261 0 l 46 0 l 135 854 l 179 933 l 181 947 l 404 947 l 314 85 l 308 85 m 372 918 l 208 918 l 124 115 l 288 115 l 372 918 z "},"H":{"ha":644,"x_min":36,"x_max":714,"o":"m 297 86 l 251 0 l 36 0 l 125 854 l 169 935 l 171 949 l 394 949 l 361 629 l 421 629 l 444 854 l 444 854 l 489 935 l 490 949 l 714 949 l 624 86 l 617 86 l 571 0 l 356 0 l 389 319 l 329 319 l 304 86 l 297 86 m 311 435 l 467 435 l 433 115 l 596 115 l 681 918 l 518 918 l 485 599 l 329 599 l 363 918 l 199 918 l 114 115 l 278 115 l 311 435 z "},"J":{"ha":644,"x_min":54,"x_max":706,"o":"m 103 363 l 322 363 l 322 361 q 369 310 333 313 q 376 310 372 310 q 382 311 379 311 l 383 318 q 384 332 383 325 q 386 346 385 339 q 385 360 385 353 q 388 374 386 367 l 438 854 l 482 936 l 483 949 l 706 949 l 647 393 q 640 328 644 357 q 621 268 635 299 q 582 204 607 236 l 563 171 q 557 160 558 165 q 478 68 526 107 q 376 13 431 29 q 296 0 340 0 q 122 78 193 0 q 72 165 89 115 q 56 268 54 214 l 101 353 q 102 357 101 356 q 103 361 103 358 l 103 363 m 450 351 q 420 300 444 321 q 367 279 396 279 l 363 279 q 321 294 339 281 q 297 332 303 308 l 132 332 q 148 247 132 286 q 192 178 164 207 q 260 132 221 149 q 347 115 300 115 q 421 126 388 115 q 524 183 479 143 q 594 278 569 224 q 610 333 606 306 q 618 393 615 360 l 674 918 l 511 918 l 463 463 q 459 407 461 435 q 450 351 457 379 z "},"K":{"ha":644,"x_min":40,"x_max":724,"o":"m 385 801 l 472 947 l 724 947 l 722 946 l 464 517 l 632 85 l 622 85 l 576 0 l 336 0 l 304 85 l 303 85 l 257 0 l 40 0 l 131 854 l 175 935 l 176 947 l 400 947 l 385 801 m 488 918 l 340 672 l 367 918 l 203 918 l 118 115 l 282 115 l 297 254 l 310 368 l 403 115 l 588 115 l 431 517 l 431 517 l 672 918 l 488 918 z "},"U":{"ha":644,"x_min":57,"x_max":715,"o":"m 304 0 q 169 38 229 0 q 81 143 110 76 q 65 282 57 200 l 125 854 l 169 935 l 171 949 l 396 949 l 336 374 q 337 340 333 353 q 347 319 340 326 q 361 309 353 311 q 376 307 369 307 q 388 308 383 307 l 444 854 l 490 935 l 492 949 l 715 949 l 656 372 q 639 293 650 328 q 608 229 628 258 l 592 208 l 569 167 l 567 161 l 567 160 l 554 143 q 502 85 532 111 q 440 40 472 58 q 372 10 407 21 q 304 0 338 0 m 461 374 q 447 322 457 342 q 423 293 436 303 q 396 281 410 283 q 374 278 382 278 q 349 281 363 278 q 325 294 336 285 q 308 323 314 304 q 306 374 301 342 l 363 918 l 199 918 l 142 372 q 156 244 133 297 q 234 149 181 183 q 356 115 288 115 q 485 149 424 115 q 583 244 546 183 q 625 372 617 296 l 682 918 l 518 918 l 461 374 z "},"T":{"ha":604,"x_min":110,"x_max":668,"o":"m 176 938 l 178 949 l 668 949 l 644 725 l 638 725 l 592 640 l 503 640 l 444 86 l 439 86 l 392 0 l 176 0 l 243 640 l 110 640 l 132 856 l 176 938 m 188 756 l 322 756 l 254 115 l 418 115 l 486 756 l 618 756 l 635 919 l 204 919 l 188 756 z "},"Y":{"ha":644,"x_min":82,"x_max":713,"o":"m 224 289 q 117 390 153 324 q 90 539 82 457 l 124 854 l 168 936 l 169 949 l 393 949 l 361 642 q 363 608 358 621 q 373 587 367 594 q 388 577 379 579 q 403 575 396 575 q 414 576 410 575 l 443 854 l 488 936 l 489 949 l 713 949 l 679 629 q 614 471 671 544 l 607 456 l 594 433 l 594 435 l 590 426 q 486 315 550 357 l 463 86 l 457 86 l 410 0 l 194 0 l 224 289 m 488 642 q 474 591 485 610 q 451 563 464 572 q 425 549 439 553 q 400 546 411 546 q 376 549 389 546 q 352 563 363 553 q 335 591 342 572 q 332 642 329 610 l 361 918 l 197 918 l 167 629 q 191 492 158 553 q 288 401 224 431 l 301 396 l 272 117 l 436 117 l 465 396 l 481 401 q 597 492 551 431 q 650 629 642 553 l 681 918 l 517 918 l 488 642 z "},"Z":{"ha":679,"x_min":33,"x_max":736,"o":"m 101 293 l 101 294 l 368 626 l 100 626 l 122 842 l 167 924 l 168 936 l 736 936 l 714 714 l 699 696 l 660 626 l 394 297 l 669 297 l 646 74 l 639 74 l 593 -12 l 33 -12 l 56 203 l 100 285 l 101 293 m 179 742 l 499 742 l 497 740 l 131 283 l 111 103 l 619 103 l 638 267 l 317 267 l 685 725 l 704 906 l 196 906 l 179 742 z "},"R":{"ha":644,"x_min":36,"x_max":690,"o":"m 356 0 l 378 214 q 381 265 381 240 q 375 300 382 289 q 354 315 367 311 q 331 321 342 319 l 306 85 l 299 85 l 253 0 l 36 0 l 125 854 l 169 933 l 171 947 l 399 947 q 467 944 433 947 q 531 931 500 942 q 591 900 563 921 q 644 844 619 879 q 679 765 668 808 q 686 676 690 721 q 624 525 675 589 l 617 514 q 651 417 647 465 q 647 308 654 368 l 624 85 l 617 85 l 571 0 l 356 0 m 113 115 l 278 115 l 311 435 l 335 435 q 349 436 343 435 l 369 436 q 446 406 425 436 q 457 361 458 389 q 453 303 456 333 l 433 115 l 596 115 l 617 308 q 621 412 624 367 q 589 501 618 457 l 581 517 l 593 531 q 637 601 621 564 q 656 678 653 639 q 651 755 660 717 q 619 825 642 793 q 574 876 599 857 q 521 903 549 894 q 462 915 493 913 q 396 918 431 918 l 197 918 l 113 115 m 393 597 q 382 597 388 597 q 372 599 376 597 l 329 599 l 346 754 l 369 754 q 378 754 375 754 q 389 756 382 754 l 410 756 q 443 751 431 756 q 482 722 468 743 q 493 676 496 701 q 472 629 490 650 q 428 601 454 608 q 393 597 413 597 m 400 626 q 392 632 396 629 q 383 638 389 635 q 364 640 372 640 l 363 628 l 381 628 q 396 626 388 626 l 400 626 z "},"S":{"ha":644,"x_min":57,"x_max":683,"o":"m 496 79 q 391 15 443 31 q 301 0 339 0 q 203 19 250 0 q 122 74 156 39 q 74 156 90 107 q 58 269 57 206 l 104 353 q 103 358 103 356 q 104 363 104 360 l 190 363 q 103 485 126 408 q 93 589 88 538 q 105 643 96 617 q 128 697 114 669 q 131 701 129 700 q 132 704 132 703 q 133 707 133 706 l 135 710 l 156 746 q 188 809 167 778 q 238 868 208 840 q 347 933 294 918 q 438 949 400 949 q 536 929 489 949 q 619 874 583 910 q 665 790 649 842 q 683 672 682 739 l 676 672 l 631 586 l 547 586 q 639 461 611 542 q 650 408 647 433 q 650 357 653 382 q 586 208 639 272 l 561 160 q 531 117 546 136 q 496 79 515 97 m 350 317 q 355 314 353 315 q 360 311 357 313 q 350 317 356 314 m 135 333 q 149 250 133 289 q 192 182 164 211 q 264 133 222 150 q 353 115 306 115 q 435 129 388 115 q 531 188 482 143 q 610 310 589 240 q 611 450 632 381 q 533 559 588 519 q 403 599 478 599 q 335 647 353 599 q 336 692 329 669 q 361 732 343 715 q 419 754 388 754 q 463 740 444 754 q 489 701 482 725 l 654 701 q 596 851 654 793 q 522 901 564 883 q 435 919 479 919 q 354 906 401 919 q 258 849 307 893 q 178 724 200 794 q 178 583 157 654 q 255 474 200 514 q 385 435 310 435 q 427 422 408 435 q 453 386 446 410 q 452 342 460 364 q 426 303 444 319 q 371 279 400 279 q 325 294 344 279 q 301 333 306 310 l 135 333 m 379 638 q 384 633 382 635 q 390 631 386 632 q 385 635 388 633 q 379 638 382 636 z "},"Q":{"ha":644,"x_min":61,"x_max":690,"o":"m 303 0 q 186 28 240 0 q 99 108 132 57 q 74 162 82 135 q 63 216 65 189 q 63 271 61 243 q 68 328 65 299 l 71 347 q 72 354 71 353 q 74 361 74 357 l 74 374 q 86 488 81 442 q 94 562 92 533 q 99 604 97 590 q 103 624 101 618 q 131 694 111 657 l 131 697 l 132 699 l 132 700 l 135 701 l 158 744 q 224 851 181 803 q 321 922 267 899 q 442 950 385 950 q 542 930 496 950 q 621 876 588 910 q 672 795 654 842 q 688 694 690 749 q 684 648 686 671 q 679 604 682 625 l 676 575 l 676 569 q 674 564 674 564 l 658 417 q 652 359 656 386 q 642 306 649 332 q 624 256 636 281 q 593 207 613 232 l 575 176 l 624 32 l 614 32 l 565 -54 l 329 -54 l 317 0 l 303 0 m 144 418 q 139 312 138 361 q 171 214 140 263 q 248 141 200 167 q 354 115 296 115 l 367 115 l 383 117 l 400 61 l 579 61 l 539 189 l 550 201 q 588 251 574 226 q 610 303 603 276 q 622 358 618 329 q 629 418 626 386 l 644 564 q 646 574 646 569 q 647 585 646 579 q 649 594 649 590 q 650 604 650 599 q 655 648 653 626 q 658 693 657 669 q 644 782 660 740 q 599 855 629 824 q 528 903 569 886 q 439 921 488 921 q 331 896 389 921 q 233 819 274 868 q 178 710 193 771 q 168 640 175 700 q 150 468 161 581 l 150 451 q 149 444 149 449 q 147 438 149 440 q 146 424 146 432 l 144 418 m 374 279 q 320 303 342 279 q 303 358 299 326 l 335 663 q 341 699 336 681 q 369 738 346 718 q 422 756 393 756 q 475 733 454 756 q 493 678 496 710 l 461 372 q 453 336 458 356 q 426 299 449 317 q 374 279 400 279 m 417 589 q 406 625 419 610 q 369 640 392 640 l 367 640 q 363 640 363 640 l 333 358 q 344 324 331 339 q 376 310 357 310 q 388 313 379 310 l 417 589 z "},"V":{"ha":629,"x_min":114,"x_max":703,"o":"m 703 947 l 701 947 l 478 86 l 472 86 l 426 0 l 160 0 l 160 1 l 114 854 l 114 854 l 160 938 l 160 947 l 386 947 l 386 947 l 397 728 l 431 854 l 431 854 l 472 929 l 476 947 l 703 947 m 357 918 l 192 918 l 233 115 l 454 115 l 665 918 l 500 918 l 378 447 l 372 617 l 357 918 z "},"W":{"ha":974,"x_min":61,"x_max":1035,"o":"m 811 947 l 1035 947 l 972 356 q 951 275 967 314 q 910 204 936 236 l 910 203 l 904 194 l 894 175 l 894 174 l 889 161 l 889 167 l 889 165 l 883 156 q 855 112 872 132 q 817 72 838 92 q 724 19 774 38 q 624 0 675 0 q 541 13 579 0 q 472 50 503 25 l 469 53 q 392 13 433 26 q 307 0 350 0 q 210 18 257 0 q 126 72 163 36 q 78 159 94 107 q 65 265 61 211 q 74 364 68 310 q 83 463 79 418 q 94 560 89 511 q 106 657 99 608 l 126 853 l 126 854 l 172 935 l 174 947 l 396 947 l 336 374 q 347 321 332 333 q 378 308 361 308 q 389 310 385 308 l 446 853 l 446 854 l 490 935 l 492 947 l 715 947 l 656 374 q 656 340 653 353 q 667 319 660 326 q 682 310 674 313 q 697 308 690 308 q 708 310 704 308 l 765 853 l 765 854 l 810 935 l 811 947 m 782 374 q 767 323 778 342 q 744 294 757 304 q 717 282 731 285 q 694 279 703 279 q 670 283 683 279 q 647 296 657 286 q 630 324 636 306 q 626 374 624 343 l 683 918 l 519 918 l 463 374 q 449 324 460 343 q 426 296 439 306 q 400 283 414 286 q 375 279 386 279 q 351 283 364 279 q 327 296 338 286 q 310 324 317 306 q 307 374 304 343 l 364 918 l 200 918 l 182 746 q 160 552 171 650 q 140 356 150 454 q 150 261 135 306 q 195 185 165 217 q 267 134 225 153 q 358 115 308 115 q 507 164 438 115 l 524 175 l 536 164 q 675 115 593 115 q 767 132 721 115 q 850 181 813 149 q 943 356 931 250 q 957 488 950 422 q 971 618 964 553 q 978 682 974 650 q 985 746 982 714 l 1003 918 l 839 918 l 782 374 z "},"L":{"ha":596,"x_min":44,"x_max":590,"o":"m 560 86 l 514 0 l 44 0 l 133 854 l 178 936 l 179 947 l 403 947 l 336 310 l 590 310 l 567 86 l 560 86 m 206 918 l 121 115 l 539 115 l 557 279 l 303 279 l 369 918 l 206 918 z "},"P":{"ha":644,"x_min":39,"x_max":694,"o":"m 254 0 l 39 0 l 128 854 l 174 935 l 175 949 l 446 949 q 629 868 556 949 q 679 778 664 828 q 689 676 694 729 q 624 519 678 590 l 607 490 l 603 482 q 601 480 601 481 q 600 478 601 479 q 490 363 560 406 q 340 319 419 319 l 332 319 l 307 86 l 301 86 l 254 0 m 117 115 l 281 115 l 314 435 l 392 435 q 488 453 442 435 q 570 506 533 472 q 631 583 607 539 q 660 676 654 626 q 651 769 665 725 q 607 849 638 813 q 443 918 542 918 l 201 918 l 117 115 m 496 676 q 467 622 492 644 q 410 599 442 599 l 332 599 l 349 754 l 426 754 q 478 732 458 754 q 496 676 499 710 m 403 629 q 374 639 390 639 l 365 639 l 364 629 l 403 629 z "},"X":{"ha":644,"x_min":13,"x_max":731,"o":"m 731 946 l 514 517 l 539 429 q 553 383 546 406 q 568 335 560 360 q 606 206 588 269 q 640 88 625 142 l 640 86 l 631 86 l 585 0 l 354 0 l 315 126 l 296 86 l 290 86 l 244 0 l 13 0 l 75 129 l 226 428 q 213 470 219 449 q 200 515 207 492 q 150 686 176 599 q 101 853 124 774 l 101 854 l 147 938 l 144 947 l 386 947 l 424 819 q 432 838 428 829 q 443 854 436 847 l 447 863 l 490 947 l 731 947 l 731 946 m 101 115 l 278 115 l 369 296 l 422 115 l 599 115 l 482 517 l 683 918 l 507 918 l 415 738 l 363 918 l 186 918 l 306 517 l 101 115 z "},"N":{"ha":644,"x_min":35,"x_max":683,"o":"m 440 949 q 562 919 507 949 q 649 836 617 889 q 683 723 683 778 q 676 613 683 668 l 621 86 l 615 86 l 569 0 l 354 0 l 414 569 q 411 606 415 592 q 400 627 407 619 q 384 637 393 635 q 368 639 375 639 l 365 639 q 361 639 361 643 l 303 86 l 296 86 l 250 0 l 35 0 l 89 524 q 101 614 94 572 q 132 699 108 656 l 136 707 q 137 709 136 708 q 138 711 138 710 l 160 753 q 211 836 176 796 q 316 919 256 889 q 440 949 376 949 m 421 754 q 445 751 432 754 q 469 738 458 747 q 487 709 481 728 q 489 660 493 690 l 432 115 l 594 115 l 647 613 q 654 717 654 667 q 624 818 654 768 q 545 892 594 865 q 438 918 496 918 q 326 892 379 918 q 232 818 272 865 q 201 770 213 794 q 181 720 189 746 q 170 668 174 694 q 164 613 167 642 l 111 115 l 275 115 l 332 660 q 347 710 336 692 q 371 739 357 729 q 399 751 385 749 q 421 754 413 754 z "},"M":{"ha":982,"x_min":42,"x_max":1015,"o":"m 681 0 l 740 571 q 729 627 744 614 q 696 640 714 640 l 693 640 q 688 640 689 642 l 629 86 l 622 86 l 576 0 l 361 0 l 421 571 q 410 627 425 614 q 376 640 394 640 l 374 640 q 368 640 369 642 l 310 86 l 303 86 l 257 0 l 42 0 l 103 590 q 115 645 106 618 q 136 696 124 672 l 138 700 q 140 703 140 703 l 143 707 l 147 715 l 165 750 q 254 874 190 818 q 347 930 296 910 q 450 950 397 950 q 603 896 536 950 q 767 950 682 950 q 865 931 818 950 q 947 875 911 911 q 999 785 983 835 q 1011 679 1015 735 l 1001 582 q 998 557 999 569 q 996 532 997 544 q 994 508 996 521 q 992 483 993 496 q 989 458 990 471 q 985 433 988 446 l 981 383 l 949 86 l 942 86 l 896 0 l 681 0 m 429 756 q 453 752 440 756 q 477 739 467 749 q 494 710 488 729 q 497 661 500 692 l 439 117 l 603 117 l 661 661 q 674 710 664 692 q 697 739 685 729 q 724 752 710 749 q 749 756 738 756 q 773 752 760 756 q 797 739 786 749 q 813 710 807 729 q 817 661 819 692 l 758 117 l 922 117 l 940 288 q 961 483 951 385 q 982 679 971 581 q 972 774 986 729 q 925 853 957 818 q 851 902 893 885 q 764 919 808 919 q 614 871 686 919 l 600 860 l 585 871 q 447 919 525 919 q 352 900 399 919 q 269 848 306 881 q 209 772 233 815 q 179 679 185 728 q 165 547 171 613 q 151 415 158 482 q 144 351 149 383 q 138 286 140 318 l 119 117 l 283 117 l 342 661 q 355 710 344 692 q 378 739 365 729 q 404 752 390 749 q 429 756 418 756 z "},"!":{"ha":346,"x_min":42,"x_max":397,"o":"m 172 947 l 397 947 l 335 351 l 328 351 l 289 282 q 318 197 325 249 q 286 126 314 156 l 283 119 l 254 68 l 251 64 q 208 17 236 35 q 147 0 179 0 q 72 31 100 0 q 49 108 42 63 q 63 151 51 131 l 65 157 l 97 214 q 108 242 100 228 q 125 267 115 256 l 65 267 l 126 854 l 171 935 l 172 947 m 200 918 l 143 382 l 308 382 l 365 918 l 200 918 m 217 279 q 155 255 182 279 q 124 197 128 231 q 142 139 121 163 q 199 115 163 115 q 259 139 232 115 q 289 197 286 163 q 272 255 293 231 q 217 279 250 279 z "},"?":{"ha":644,"x_min":92,"x_max":692,"o":"m 582 903 q 666 794 640 861 q 678 654 692 726 q 617 528 664 588 l 593 481 q 489 368 551 411 l 488 353 l 481 353 l 442 282 q 465 244 457 267 q 471 197 474 221 q 436 125 468 157 l 408 76 l 406 67 q 359 18 388 36 q 299 0 331 0 q 226 32 254 0 q 203 108 197 64 q 215 150 204 131 q 218 157 215 154 l 218 158 l 221 160 l 222 167 l 222 165 l 251 214 q 261 242 254 229 q 279 267 268 256 l 219 267 l 235 413 q 241 448 238 432 q 253 476 244 464 l 256 483 l 288 542 q 365 622 308 601 q 390 626 378 626 q 399 628 396 626 q 367 639 385 639 q 318 610 339 639 l 306 586 l 92 586 l 92 588 q 131 700 104 656 l 132 703 l 133 704 l 133 706 l 133 707 l 139 717 l 139 715 l 161 756 q 243 872 188 825 q 335 928 283 908 q 439 949 386 949 q 513 937 476 949 q 582 903 550 925 m 368 279 q 308 255 335 279 q 276 197 281 231 q 295 140 274 164 q 350 115 317 115 q 410 140 383 115 q 440 197 438 164 q 423 255 444 231 q 368 279 401 279 m 483 456 q 592 536 549 483 q 647 657 635 589 q 640 783 663 724 q 564 878 617 842 q 436 918 507 918 q 342 900 389 918 q 260 850 296 882 q 203 781 226 819 q 172 701 181 743 l 339 701 q 372 740 349 725 q 419 754 394 754 q 485 708 467 754 q 483 657 493 683 q 450 614 474 631 q 424 601 436 604 q 400 597 411 599 q 394 596 396 597 q 383 596 389 596 q 372 594 378 596 q 308 501 317 575 l 296 382 l 460 382 l 467 449 l 483 456 z "},".":{"ha":324,"x_min":38,"x_max":318,"o":"m 211 308 q 289 276 260 308 q 313 197 318 244 q 279 126 311 160 l 249 72 q 247 69 249 71 l 244 64 l 242 56 l 242 60 q 197 16 224 32 q 139 0 171 0 q 66 31 94 0 q 43 107 38 63 q 56 151 46 135 q 58 158 56 156 l 61 160 l 60 160 l 61 163 l 63 168 l 63 167 l 92 217 q 137 283 103 257 q 211 308 171 308 m 208 279 q 148 255 175 279 q 117 197 121 231 q 135 140 114 164 q 190 115 157 115 q 252 139 225 115 q 282 197 279 163 q 265 256 286 232 q 208 279 244 279 z "},",":{"ha":324,"x_min":29,"x_max":310,"o":"m 308 204 l 310 200 l 308 196 q 247 43 300 117 l 226 1 l 219 -10 q 104 -135 181 -79 l 101 -137 l 101 -136 q 86 -142 97 -142 q 74 -137 79 -142 q 63 -110 61 -129 q 63 -103 63 -110 q 63 -81 63 -92 q 61 -58 63 -69 q 57 -46 61 -54 q 53 -38 54 -43 q 50 -28 53 -33 l 46 -6 q 40 108 29 49 q 53 151 43 135 q 56 157 53 154 l 57 160 l 57 161 l 89 219 q 135 284 101 260 q 210 308 168 308 q 250 300 233 307 q 283 274 267 293 q 296 258 290 267 q 304 243 301 250 l 310 214 l 308 204 m 281 200 q 279 203 279 201 l 279 211 l 276 228 q 270 241 274 235 q 263 254 267 247 q 238 272 249 267 q 207 279 226 278 q 146 255 172 279 q 115 196 119 231 l 115 193 q 112 141 108 165 q 121 93 115 117 l 126 72 q 131 56 129 64 q 136 38 133 47 q 138 8 139 22 q 138 -19 138 -7 l 138 -24 l 138 -26 l 139 -26 q 142 -25 140 -26 q 279 196 267 72 l 281 200 z "},";":{"ha":324,"x_min":29,"x_max":385,"o":"m 308 204 l 310 200 l 308 196 q 247 43 300 117 l 226 1 l 219 -10 q 104 -135 181 -79 l 101 -137 l 101 -136 q 86 -142 97 -142 q 74 -137 79 -142 q 63 -110 61 -129 q 63 -103 63 -110 q 63 -81 63 -92 q 61 -58 63 -69 q 57 -46 61 -54 q 53 -38 54 -43 q 50 -28 53 -33 l 46 -6 q 40 108 29 49 q 53 151 43 135 q 56 157 53 154 l 57 160 l 57 161 l 89 219 q 135 284 101 260 q 210 308 168 308 q 250 300 233 307 q 283 274 267 293 q 296 258 290 267 q 304 243 301 250 l 310 214 l 308 204 m 281 200 q 279 203 279 201 l 279 211 l 276 228 q 270 241 274 235 q 263 254 267 247 q 238 272 249 267 q 207 279 226 278 q 146 255 172 279 q 115 196 119 231 l 115 193 q 112 141 108 165 q 121 93 115 117 l 126 72 q 131 56 129 64 q 136 38 133 47 q 138 8 139 22 q 138 -19 138 -7 l 138 -24 l 138 -26 l 139 -26 q 142 -25 140 -26 q 279 196 267 72 l 281 200 m 276 938 q 355 906 325 938 q 379 826 385 874 q 346 756 375 789 l 315 701 l 313 699 l 311 693 l 307 685 l 308 689 q 263 645 290 661 q 204 629 236 629 q 132 660 160 629 q 108 736 104 692 q 122 781 113 765 q 125 788 122 785 l 126 789 l 125 789 l 126 792 l 129 797 l 129 796 l 158 846 q 203 912 169 886 q 276 938 236 938 m 274 908 q 213 884 240 908 q 183 826 186 860 q 202 769 181 793 q 257 744 224 744 q 319 768 292 744 q 349 826 346 792 q 331 885 353 861 q 274 908 310 908 z "},":":{"ha":324,"x_min":38,"x_max":385,"o":"m 211 308 q 289 276 260 308 q 313 197 318 244 q 279 126 311 160 l 249 72 q 247 69 249 71 l 244 64 l 242 56 l 242 60 q 197 16 224 32 q 139 0 171 0 q 66 31 94 0 q 43 107 38 63 q 56 151 46 135 q 58 158 56 156 l 61 160 l 60 160 l 61 163 l 63 168 l 63 167 l 92 217 q 137 283 103 257 q 211 308 171 308 m 208 279 q 148 255 175 279 q 117 197 121 231 q 135 140 114 164 q 190 115 157 115 q 252 139 225 115 q 282 197 279 163 q 265 256 286 232 q 208 279 244 279 m 276 938 q 355 906 325 938 q 379 826 385 874 q 346 756 375 789 l 315 701 l 313 699 l 311 693 l 307 685 l 308 689 q 263 645 290 661 q 204 629 236 629 q 132 660 160 629 q 108 736 104 692 q 122 781 113 765 q 125 788 122 785 l 126 789 l 125 789 l 126 792 l 129 797 l 129 796 l 158 846 q 203 912 169 886 q 276 938 236 938 m 274 908 q 213 884 240 908 q 183 826 186 860 q 202 769 181 793 q 257 744 224 744 q 319 768 292 744 q 349 826 346 792 q 331 885 353 861 q 274 908 310 908 z "},"a":{"ha":644,"x_min":31,"x_max":682,"o":"m 246 0 l 31 0 l 79 465 q 83 512 81 486 q 90 563 86 538 q 96 607 93 588 q 101 635 99 626 q 110 665 104 650 q 126 697 117 679 l 128 700 q 129 702 129 701 q 131 704 129 703 l 151 740 q 201 830 168 789 q 279 901 235 871 q 438 949 354 949 q 563 917 507 949 q 651 828 619 885 q 681 725 681 775 q 676 622 682 675 l 619 86 l 613 86 l 567 0 l 350 0 l 372 213 l 313 213 l 299 86 l 293 86 l 246 0 m 450 328 l 428 115 l 592 115 l 646 622 q 651 718 651 671 q 625 811 650 765 q 547 891 597 863 q 435 919 497 919 q 294 876 361 919 q 220 808 250 849 q 176 719 190 767 q 171 692 174 711 q 165 649 168 674 q 160 600 163 625 q 156 556 157 575 q 153 543 154 549 q 153 532 153 538 l 108 115 l 272 115 l 294 328 l 450 328 m 468 492 l 313 492 l 329 653 q 331 678 329 664 q 342 708 333 693 q 374 744 357 732 q 418 756 392 756 q 483 708 467 756 q 489 678 490 693 q 485 653 488 664 l 468 492 m 404 522 l 408 564 q 413 586 411 575 q 411 608 414 597 q 365 639 397 639 l 357 639 l 344 522 l 404 522 z "},"b":{"ha":644,"x_min":36,"x_max":692,"o":"m 557 149 q 446 40 514 81 q 304 0 378 0 l 36 0 l 125 854 l 169 935 l 171 947 l 443 947 q 578 908 518 947 q 669 797 639 868 q 686 675 692 738 q 622 528 678 596 l 615 514 q 653 358 661 439 q 610 238 647 299 q 601 223 607 231 q 589 208 596 215 l 557 149 m 592 531 q 653 656 640 589 q 642 785 667 722 q 564 883 617 847 q 440 918 511 918 l 199 918 l 114 115 l 356 115 q 487 151 426 115 q 585 249 547 186 q 624 378 624 311 q 589 503 625 444 l 581 517 l 592 531 m 424 754 q 476 731 456 754 q 493 676 496 708 q 464 622 489 644 q 407 599 439 599 l 329 599 l 346 754 l 424 754 m 400 628 q 371 639 389 639 l 363 639 l 361 628 l 400 628 m 389 435 q 442 412 421 435 q 460 357 463 389 q 431 302 456 325 q 374 279 406 279 l 296 279 l 311 435 l 389 435 m 367 308 q 338 319 353 319 l 329 319 l 328 308 l 367 308 z "},"c":{"ha":644,"x_min":58,"x_max":683,"o":"m 558 167 q 449 46 515 90 q 300 0 379 0 q 219 13 263 0 q 122 75 163 31 q 65 181 81 119 q 60 240 58 211 q 64 303 61 268 l 90 553 q 99 616 94 586 q 118 675 104 646 l 125 692 l 154 744 l 163 765 q 243 870 190 824 q 356 936 296 917 q 439 949 397 949 q 535 928 490 949 q 615 868 581 907 q 665 779 647 829 q 682 672 683 729 l 682 671 l 675 671 l 629 585 l 417 585 l 417 586 q 365 639 403 636 q 361 640 363 639 l 357 640 l 357 635 q 353 602 354 618 q 351 569 351 586 l 339 463 q 335 431 336 446 q 332 399 333 415 q 329 376 331 389 q 328 353 328 363 q 342 322 329 333 q 374 310 354 310 q 405 324 389 311 q 431 361 421 338 l 431 363 l 650 363 l 650 361 q 583 213 632 276 l 558 167 m 436 918 q 363 907 403 918 q 260 850 306 890 q 192 756 215 810 q 173 701 178 729 q 165 642 168 674 l 139 393 q 135 333 136 360 q 142 278 133 306 q 191 183 154 224 q 281 126 228 143 q 319 117 301 119 q 351 115 336 115 q 442 132 399 115 q 520 178 485 149 q 580 247 556 207 q 614 332 604 286 l 449 332 q 417 294 438 308 q 372 279 397 281 l 369 279 q 318 300 339 279 q 299 351 297 321 q 303 408 300 379 q 310 463 307 438 l 322 569 q 326 624 324 596 q 333 682 328 653 q 364 733 339 713 q 419 754 389 754 l 422 754 q 464 738 446 753 q 486 700 482 724 l 651 700 q 637 787 653 747 q 592 856 621 826 q 523 901 563 885 q 436 918 483 918 z "},"d":{"ha":644,"x_min":35,"x_max":690,"o":"m 474 442 q 469 397 472 419 q 464 350 467 374 q 442 305 460 325 q 399 278 424 285 q 380 276 389 276 q 360 275 371 275 l 339 275 q 328 276 332 276 q 319 276 325 276 l 294 276 l 344 747 q 388 749 357 747 q 450 738 418 750 q 478 717 468 731 q 492 688 488 703 q 496 658 496 672 q 494 633 496 643 q 493 622 493 629 l 478 486 l 474 442 m 399 306 q 411 438 406 376 q 416 489 414 463 q 420 538 418 515 q 423 577 422 560 q 424 603 424 594 q 414 627 424 619 q 393 638 404 635 q 363 638 379 640 l 328 304 q 338 304 332 304 q 347 303 344 304 l 363 303 q 378 303 369 303 q 393 304 386 304 l 393 306 l 399 306 m 561 157 q 451 42 521 85 q 301 0 381 0 l 35 0 l 124 854 l 168 935 l 169 947 l 440 947 q 625 869 554 947 q 674 781 658 831 q 685 676 690 732 l 651 357 q 585 200 640 271 l 567 169 q 565 167 567 167 l 561 157 m 111 115 l 353 115 q 449 134 403 115 q 531 186 494 153 q 592 263 568 219 q 621 357 615 307 l 654 676 q 645 770 660 726 q 601 847 631 814 q 530 899 572 881 q 438 918 488 918 l 196 918 l 111 115 z "},"e":{"ha":644,"x_min":35,"x_max":713,"o":"m 615 86 l 569 0 l 35 0 l 124 856 l 168 935 l 169 949 l 713 949 l 689 725 l 682 725 l 636 639 l 361 639 l 360 629 l 679 629 l 656 406 l 649 406 l 603 319 l 328 319 l 326 310 l 646 310 l 622 86 l 615 86 m 196 919 l 111 115 l 596 115 l 614 279 l 293 279 l 308 435 l 629 435 l 647 599 l 326 599 l 343 756 l 664 756 l 681 919 l 196 919 z "},"f":{"ha":644,"x_min":32,"x_max":710,"o":"m 293 86 l 247 0 l 32 0 l 121 854 l 165 935 l 167 947 l 710 947 l 686 724 l 679 724 l 633 639 l 358 639 l 357 628 l 676 628 l 653 404 l 646 404 l 600 319 l 325 319 l 300 86 l 293 86 m 194 918 l 110 115 l 274 115 l 307 435 l 626 435 l 644 599 l 325 599 l 342 754 l 661 754 l 678 918 l 194 918 z "},"g":{"ha":644,"x_min":60,"x_max":685,"o":"m 676 672 l 653 629 l 678 629 l 650 357 q 629 278 644 317 q 586 204 614 240 l 560 158 q 451 43 519 86 q 303 0 382 0 q 222 13 260 0 q 123 76 164 32 q 67 181 82 121 q 60 240 60 211 q 64 303 61 269 l 90 551 q 100 615 94 586 q 119 675 106 644 q 124 687 122 682 q 129 699 126 692 l 157 747 l 165 767 q 243 872 193 826 q 358 936 293 917 q 401 945 381 943 q 442 947 421 947 q 538 926 493 947 q 615 867 582 904 q 666 781 647 831 q 683 672 685 731 l 676 672 m 439 918 q 364 908 403 918 q 262 850 307 890 q 193 757 217 810 q 175 701 181 729 q 167 642 169 674 l 140 392 q 137 333 138 361 q 143 278 136 306 q 192 184 156 224 q 282 126 229 144 q 318 118 301 121 q 354 115 335 115 q 449 134 404 115 q 531 186 494 153 q 592 263 568 219 q 621 357 615 307 l 646 599 l 354 599 l 336 435 l 464 435 l 457 357 q 429 303 453 325 q 374 279 406 281 l 371 279 q 319 300 339 279 q 300 351 299 321 q 303 395 300 374 q 308 436 306 417 q 309 450 308 443 q 311 464 310 457 q 315 491 314 478 q 318 517 315 504 q 320 544 319 531 q 322 569 321 557 q 323 583 322 576 q 325 597 324 590 q 329 639 328 618 q 335 683 331 660 q 365 733 340 713 q 421 754 390 754 l 424 754 q 465 739 447 753 q 489 701 482 725 l 656 701 q 639 787 656 747 q 593 856 622 826 q 524 901 564 885 q 439 918 485 918 m 386 319 l 344 319 q 375 310 356 310 q 385 311 382 310 l 386 319 z "},"h":{"ha":644,"x_min":36,"x_max":714,"o":"m 297 86 l 251 0 l 36 0 l 125 854 l 169 935 l 171 949 l 394 949 l 361 629 l 421 629 l 444 854 l 444 854 l 489 935 l 490 949 l 714 949 l 624 86 l 617 86 l 571 0 l 356 0 l 389 319 l 329 319 l 304 86 l 297 86 m 311 435 l 467 435 l 433 115 l 596 115 l 681 918 l 518 918 l 485 599 l 329 599 l 363 918 l 199 918 l 114 115 l 278 115 l 311 435 z "},"i":{"ha":347,"x_min":46,"x_max":404,"o":"m 308 85 l 261 0 l 46 0 l 135 854 l 179 933 l 181 947 l 404 947 l 314 85 l 308 85 m 372 918 l 208 918 l 124 115 l 288 115 l 372 918 z "},"j":{"ha":644,"x_min":54,"x_max":706,"o":"m 103 363 l 322 363 l 322 361 q 369 310 333 313 q 376 310 372 310 q 382 311 379 311 l 383 318 q 384 332 383 325 q 386 346 385 339 q 385 360 385 353 q 388 374 386 367 l 438 854 l 482 936 l 483 949 l 706 949 l 647 393 q 640 328 644 357 q 621 268 635 299 q 582 204 607 236 l 563 171 q 557 160 558 165 q 478 68 526 107 q 376 13 431 29 q 296 0 340 0 q 122 78 193 0 q 72 165 89 115 q 56 268 54 214 l 101 353 q 102 357 101 356 q 103 361 103 358 l 103 363 m 450 351 q 420 300 444 321 q 367 279 396 279 l 363 279 q 321 294 339 281 q 297 332 303 308 l 132 332 q 148 247 132 286 q 192 178 164 207 q 260 132 221 149 q 347 115 300 115 q 421 126 388 115 q 524 183 479 143 q 594 278 569 224 q 610 333 606 306 q 618 393 615 360 l 674 918 l 511 918 l 463 463 q 459 407 461 435 q 450 351 457 379 z "},"k":{"ha":644,"x_min":40,"x_max":724,"o":"m 385 801 l 472 947 l 724 947 l 722 946 l 464 517 l 632 85 l 622 85 l 576 0 l 336 0 l 304 85 l 303 85 l 257 0 l 40 0 l 131 854 l 175 935 l 176 947 l 400 947 l 385 801 m 488 918 l 340 672 l 367 918 l 203 918 l 118 115 l 282 115 l 297 254 l 310 368 l 403 115 l 588 115 l 431 517 l 431 517 l 672 918 l 488 918 z "},"l":{"ha":596,"x_min":44,"x_max":590,"o":"m 560 86 l 514 0 l 44 0 l 133 854 l 178 936 l 179 947 l 403 947 l 336 310 l 590 310 l 567 86 l 560 86 m 206 918 l 121 115 l 539 115 l 557 279 l 303 279 l 369 918 l 206 918 z "},"m":{"ha":982,"x_min":42,"x_max":1015,"o":"m 681 0 l 740 571 q 729 627 744 614 q 696 640 714 640 l 693 640 q 688 640 689 642 l 629 86 l 622 86 l 576 0 l 361 0 l 421 571 q 410 627 425 614 q 376 640 394 640 l 374 640 q 368 640 369 642 l 310 86 l 303 86 l 257 0 l 42 0 l 103 590 q 115 645 106 618 q 136 696 124 672 l 138 700 q 140 703 140 703 l 143 707 l 147 715 l 165 750 q 254 874 190 818 q 347 930 296 910 q 450 950 397 950 q 603 896 536 950 q 767 950 682 950 q 865 931 818 950 q 947 875 911 911 q 999 785 983 835 q 1011 679 1015 735 l 1001 582 q 998 557 999 569 q 996 532 997 544 q 994 508 996 521 q 992 483 993 496 q 989 458 990 471 q 985 433 988 446 l 981 383 l 949 86 l 942 86 l 896 0 l 681 0 m 429 756 q 453 752 440 756 q 477 739 467 749 q 494 710 488 729 q 497 661 500 692 l 439 117 l 603 117 l 661 661 q 674 710 664 692 q 697 739 685 729 q 724 752 710 749 q 749 756 738 756 q 773 752 760 756 q 797 739 786 749 q 813 710 807 729 q 817 661 819 692 l 758 117 l 922 117 l 940 288 q 961 483 951 385 q 982 679 971 581 q 972 774 986 729 q 925 853 957 818 q 851 902 893 885 q 764 919 808 919 q 614 871 686 919 l 600 860 l 585 871 q 447 919 525 919 q 352 900 399 919 q 269 848 306 881 q 209 772 233 815 q 179 679 185 728 q 165 547 171 613 q 151 415 158 482 q 144 351 149 383 q 138 286 140 318 l 119 117 l 283 117 l 342 661 q 355 710 344 692 q 378 739 365 729 q 404 752 390 749 q 429 756 418 756 z "},"n":{"ha":644,"x_min":35,"x_max":683,"o":"m 440 949 q 562 919 507 949 q 649 836 617 889 q 683 723 683 778 q 676 613 683 668 l 621 86 l 615 86 l 569 0 l 354 0 l 414 569 q 411 606 415 592 q 400 627 407 619 q 384 637 393 635 q 368 639 375 639 l 365 639 q 361 639 361 643 l 303 86 l 296 86 l 250 0 l 35 0 l 89 524 q 101 614 94 572 q 132 699 108 656 l 136 707 q 137 709 136 708 q 138 711 138 710 l 160 753 q 211 836 176 796 q 316 919 256 889 q 440 949 376 949 m 421 754 q 445 751 432 754 q 469 738 458 747 q 487 709 481 728 q 489 660 493 690 l 432 115 l 594 115 l 647 613 q 654 717 654 667 q 624 818 654 768 q 545 892 594 865 q 438 918 496 918 q 326 892 379 918 q 232 818 272 865 q 201 770 213 794 q 181 720 189 746 q 170 668 174 694 q 164 613 167 642 l 111 115 l 275 115 l 332 660 q 347 710 336 692 q 371 739 357 729 q 399 751 385 749 q 421 754 413 754 z "},"o":{"ha":644,"x_min":58,"x_max":686,"o":"m 301 0 q 166 38 226 0 q 78 143 106 76 q 61 207 64 174 q 63 283 58 240 l 93 571 q 106 641 97 611 q 133 703 115 671 l 136 713 l 156 743 l 156 747 q 168 774 161 761 q 183 803 175 788 q 296 910 226 868 q 440 949 365 949 q 576 910 514 949 q 628 863 606 890 q 665 803 651 836 q 683 736 679 769 q 682 661 686 703 l 651 372 q 635 296 646 329 q 606 231 625 263 l 589 207 l 567 165 l 553 143 q 444 38 511 76 q 301 0 376 0 m 438 919 q 308 885 369 919 q 208 790 247 850 q 181 731 190 761 q 168 661 172 701 l 138 372 q 137 303 133 333 q 151 244 140 272 q 231 150 178 185 q 353 115 285 115 q 481 150 419 115 q 581 244 542 185 q 608 303 599 272 q 622 372 618 333 l 653 661 q 653 731 657 701 q 638 790 649 761 q 558 885 611 850 q 438 919 504 919 m 371 278 q 318 301 339 278 q 301 357 297 325 l 333 663 q 340 699 335 679 q 367 736 344 718 q 421 756 390 756 q 473 733 453 756 q 490 678 493 710 l 458 371 q 451 336 456 356 q 422 297 446 317 q 371 278 399 278 m 414 588 q 403 625 417 610 q 368 640 389 640 q 365 640 365 640 q 363 639 364 639 l 360 639 l 331 357 q 341 323 328 338 q 374 308 354 308 q 385 310 381 308 l 414 588 z "},"p":{"ha":644,"x_min":39,"x_max":694,"o":"m 254 0 l 39 0 l 128 854 l 174 935 l 175 949 l 446 949 q 629 868 556 949 q 679 778 664 828 q 689 676 694 729 q 624 519 678 590 l 607 490 l 603 482 q 601 480 601 481 q 600 478 601 479 q 490 363 560 406 q 340 319 419 319 l 332 319 l 307 86 l 301 86 l 254 0 m 117 115 l 281 115 l 314 435 l 392 435 q 488 453 442 435 q 570 506 533 472 q 631 583 607 539 q 660 676 654 626 q 651 769 665 725 q 607 849 638 813 q 443 918 542 918 l 201 918 l 117 115 m 496 676 q 467 622 492 644 q 410 599 442 599 l 332 599 l 349 754 l 426 754 q 478 732 458 754 q 496 676 499 710 m 403 629 q 374 639 390 639 l 365 639 l 364 629 l 403 629 z "},"q":{"ha":644,"x_min":61,"x_max":690,"o":"m 303 0 q 186 28 240 0 q 99 108 132 57 q 74 162 82 135 q 63 216 65 189 q 63 271 61 243 q 68 328 65 299 l 71 347 q 72 354 71 353 q 74 361 74 357 l 74 374 q 86 488 81 442 q 94 562 92 533 q 99 604 97 590 q 103 624 101 618 q 131 694 111 657 l 131 697 l 132 699 l 132 700 l 135 701 l 158 744 q 224 851 181 803 q 321 922 267 899 q 442 950 385 950 q 542 930 496 950 q 621 876 588 910 q 672 795 654 842 q 688 694 690 749 q 684 648 686 671 q 679 604 682 625 l 676 575 l 676 569 q 674 564 674 564 l 658 417 q 652 359 656 386 q 642 306 649 332 q 624 256 636 281 q 593 207 613 232 l 575 176 l 624 32 l 614 32 l 565 -54 l 329 -54 l 317 0 l 303 0 m 144 418 q 139 312 138 361 q 171 214 140 263 q 248 141 200 167 q 354 115 296 115 l 367 115 l 383 117 l 400 61 l 579 61 l 539 189 l 550 201 q 588 251 574 226 q 610 303 603 276 q 622 358 618 329 q 629 418 626 386 l 644 564 q 646 574 646 569 q 647 585 646 579 q 649 594 649 590 q 650 604 650 599 q 655 648 653 626 q 658 693 657 669 q 644 782 660 740 q 599 855 629 824 q 528 903 569 886 q 439 921 488 921 q 331 896 389 921 q 233 819 274 868 q 178 710 193 771 q 168 640 175 700 q 150 468 161 581 l 150 451 q 149 444 149 449 q 147 438 149 440 q 146 424 146 432 l 144 418 m 374 279 q 320 303 342 279 q 303 358 299 326 l 335 663 q 341 699 336 681 q 369 738 346 718 q 422 756 393 756 q 475 733 454 756 q 493 678 496 710 l 461 372 q 453 336 458 356 q 426 299 449 317 q 374 279 400 279 m 417 589 q 406 625 419 610 q 369 640 392 640 l 367 640 q 363 640 363 640 l 333 358 q 344 324 331 339 q 376 310 357 310 q 388 313 379 310 l 417 589 z "},"r":{"ha":644,"x_min":36,"x_max":690,"o":"m 356 0 l 378 214 q 381 265 381 240 q 375 300 382 289 q 354 315 367 311 q 331 321 342 319 l 306 85 l 299 85 l 253 0 l 36 0 l 125 854 l 169 933 l 171 947 l 399 947 q 467 944 433 947 q 531 931 500 942 q 591 900 563 921 q 644 844 619 879 q 679 765 668 808 q 686 676 690 721 q 624 525 675 589 l 617 514 q 651 417 647 465 q 647 308 654 368 l 624 85 l 617 85 l 571 0 l 356 0 m 113 115 l 278 115 l 311 435 l 335 435 q 349 436 343 435 l 369 436 q 446 406 425 436 q 457 361 458 389 q 453 303 456 333 l 433 115 l 596 115 l 617 308 q 621 412 624 367 q 589 501 618 457 l 581 517 l 593 531 q 637 601 621 564 q 656 678 653 639 q 651 755 660 717 q 619 825 642 793 q 574 876 599 857 q 521 903 549 894 q 462 915 493 913 q 396 918 431 918 l 197 918 l 113 115 m 393 597 q 382 597 388 597 q 372 599 376 597 l 329 599 l 346 754 l 369 754 q 378 754 375 754 q 389 756 382 754 l 410 756 q 443 751 431 756 q 482 722 468 743 q 493 676 496 701 q 472 629 490 650 q 428 601 454 608 q 393 597 413 597 m 400 626 q 392 632 396 629 q 383 638 389 635 q 364 640 372 640 l 363 628 l 381 628 q 396 626 388 626 l 400 626 z "},"s":{"ha":644,"x_min":57,"x_max":683,"o":"m 496 79 q 391 15 443 31 q 301 0 339 0 q 203 19 250 0 q 122 74 156 39 q 74 156 90 107 q 58 269 57 206 l 104 353 q 103 358 103 356 q 104 363 104 360 l 190 363 q 103 485 126 408 q 93 589 88 538 q 105 643 96 617 q 128 697 114 669 q 131 701 129 700 q 132 704 132 703 q 133 707 133 706 l 135 710 l 156 746 q 188 809 167 778 q 238 868 208 840 q 347 933 294 918 q 438 949 400 949 q 536 929 489 949 q 619 874 583 910 q 665 790 649 842 q 683 672 682 739 l 676 672 l 631 586 l 547 586 q 639 461 611 542 q 650 408 647 433 q 650 357 653 382 q 586 208 639 272 l 561 160 q 531 117 546 136 q 496 79 515 97 m 350 317 q 355 314 353 315 q 360 311 357 313 q 350 317 356 314 m 135 333 q 149 250 133 289 q 192 182 164 211 q 264 133 222 150 q 353 115 306 115 q 435 129 388 115 q 531 188 482 143 q 610 310 589 240 q 611 450 632 381 q 533 559 588 519 q 403 599 478 599 q 335 647 353 599 q 336 692 329 669 q 361 732 343 715 q 419 754 388 754 q 463 740 444 754 q 489 701 482 725 l 654 701 q 596 851 654 793 q 522 901 564 883 q 435 919 479 919 q 354 906 401 919 q 258 849 307 893 q 178 724 200 794 q 178 583 157 654 q 255 474 200 514 q 385 435 310 435 q 427 422 408 435 q 453 386 446 410 q 452 342 460 364 q 426 303 444 319 q 371 279 400 279 q 325 294 344 279 q 301 333 306 310 l 135 333 m 379 638 q 384 633 382 635 q 390 631 386 632 q 385 635 388 633 q 379 638 382 636 z "},"t":{"ha":604,"x_min":110,"x_max":668,"o":"m 176 938 l 178 949 l 668 949 l 644 725 l 638 725 l 592 640 l 503 640 l 444 86 l 439 86 l 392 0 l 176 0 l 243 640 l 110 640 l 132 856 l 176 938 m 188 756 l 322 756 l 254 115 l 418 115 l 486 756 l 618 756 l 635 919 l 204 919 l 188 756 z "},"u":{"ha":644,"x_min":57,"x_max":715,"o":"m 304 0 q 169 38 229 0 q 81 143 110 76 q 65 282 57 200 l 125 854 l 169 935 l 171 949 l 396 949 l 336 374 q 337 340 333 353 q 347 319 340 326 q 361 309 353 311 q 376 307 369 307 q 388 308 383 307 l 444 854 l 490 935 l 492 949 l 715 949 l 656 372 q 639 293 650 328 q 608 229 628 258 l 592 208 l 569 167 l 567 161 l 567 160 l 554 143 q 502 85 532 111 q 440 40 472 58 q 372 10 407 21 q 304 0 338 0 m 461 374 q 447 322 457 342 q 423 293 436 303 q 396 281 410 283 q 374 278 382 278 q 349 281 363 278 q 325 294 336 285 q 308 323 314 304 q 306 374 301 342 l 363 918 l 199 918 l 142 372 q 156 244 133 297 q 234 149 181 183 q 356 115 288 115 q 485 149 424 115 q 583 244 546 183 q 625 372 617 296 l 682 918 l 518 918 l 461 374 z "},"v":{"ha":629,"x_min":114,"x_max":703,"o":"m 703 947 l 701 947 l 478 86 l 472 86 l 426 0 l 160 0 l 160 1 l 114 854 l 114 854 l 160 938 l 160 947 l 386 947 l 386 947 l 397 728 l 431 854 l 431 854 l 472 929 l 476 947 l 703 947 m 357 918 l 192 918 l 233 115 l 454 115 l 665 918 l 500 918 l 378 447 l 372 617 l 357 918 z "},"w":{"ha":974,"x_min":61,"x_max":1035,"o":"m 811 947 l 1035 947 l 972 356 q 951 275 967 314 q 910 204 936 236 l 910 203 l 904 194 l 894 175 l 894 174 l 889 161 l 889 167 l 889 165 l 883 156 q 855 112 872 132 q 817 72 838 92 q 724 19 774 38 q 624 0 675 0 q 541 13 579 0 q 472 50 503 25 l 469 53 q 392 13 433 26 q 307 0 350 0 q 210 18 257 0 q 126 72 163 36 q 78 159 94 107 q 65 265 61 211 q 74 364 68 310 q 83 463 79 418 q 94 560 89 511 q 106 657 99 608 l 126 853 l 126 854 l 172 935 l 174 947 l 396 947 l 336 374 q 347 321 332 333 q 378 308 361 308 q 389 310 385 308 l 446 853 l 446 854 l 490 935 l 492 947 l 715 947 l 656 374 q 656 340 653 353 q 667 319 660 326 q 682 310 674 313 q 697 308 690 308 q 708 310 704 308 l 765 853 l 765 854 l 810 935 l 811 947 m 782 374 q 767 323 778 342 q 744 294 757 304 q 717 282 731 285 q 694 279 703 279 q 670 283 683 279 q 647 296 657 286 q 630 324 636 306 q 626 374 624 343 l 683 918 l 519 918 l 463 374 q 449 324 460 343 q 426 296 439 306 q 400 283 414 286 q 375 279 386 279 q 351 283 364 279 q 327 296 338 286 q 310 324 317 306 q 307 374 304 343 l 364 918 l 200 918 l 182 746 q 160 552 171 650 q 140 356 150 454 q 150 261 135 306 q 195 185 165 217 q 267 134 225 153 q 358 115 308 115 q 507 164 438 115 l 524 175 l 536 164 q 675 115 593 115 q 767 132 721 115 q 850 181 813 149 q 943 356 931 250 q 957 488 950 422 q 971 618 964 553 q 978 682 974 650 q 985 746 982 714 l 1003 918 l 839 918 l 782 374 z "},"x":{"ha":644,"x_min":13,"x_max":731,"o":"m 731 946 l 514 517 l 539 429 q 553 383 546 406 q 568 335 560 360 q 606 206 588 269 q 640 88 625 142 l 640 86 l 631 86 l 585 0 l 354 0 l 315 126 l 296 86 l 290 86 l 244 0 l 13 0 l 75 129 l 226 428 q 213 470 219 449 q 200 515 207 492 q 150 686 176 599 q 101 853 124 774 l 101 854 l 147 938 l 144 947 l 386 947 l 424 819 q 432 838 428 829 q 443 854 436 847 l 447 863 l 490 947 l 731 947 l 731 946 m 101 115 l 278 115 l 369 296 l 422 115 l 599 115 l 482 517 l 683 918 l 507 918 l 415 738 l 363 918 l 186 918 l 306 517 l 101 115 z "},"y":{"ha":644,"x_min":82,"x_max":713,"o":"m 224 289 q 117 390 153 324 q 90 539 82 457 l 124 854 l 168 936 l 169 949 l 393 949 l 361 642 q 363 608 358 621 q 373 587 367 594 q 388 577 379 579 q 403 575 396 575 q 414 576 410 575 l 443 854 l 488 936 l 489 949 l 713 949 l 679 629 q 614 471 671 544 l 607 456 l 594 433 l 594 435 l 590 426 q 486 315 550 357 l 463 86 l 457 86 l 410 0 l 194 0 l 224 289 m 488 642 q 474 591 485 610 q 451 563 464 572 q 425 549 439 553 q 400 546 411 546 q 376 549 389 546 q 352 563 363 553 q 335 591 342 572 q 332 642 329 610 l 361 918 l 197 918 l 167 629 q 191 492 158 553 q 288 401 224 431 l 301 396 l 272 117 l 436 117 l 465 396 l 481 401 q 597 492 551 431 q 650 629 642 553 l 681 918 l 517 918 l 488 642 z "},"z":{"ha":679,"x_min":33,"x_max":736,"o":"m 101 293 l 101 294 l 368 626 l 100 626 l 122 842 l 167 924 l 168 936 l 736 936 l 714 714 l 699 696 l 660 626 l 394 297 l 669 297 l 646 74 l 639 74 l 593 -12 l 33 -12 l 56 203 l 100 285 l 101 293 m 179 742 l 499 742 l 497 740 l 131 283 l 111 103 l 619 103 l 638 267 l 317 267 l 685 725 l 704 906 l 196 906 l 179 742 z "},"C":{"ha":644,"x_min":58,"x_max":683,"o":"m 558 167 q 449 46 515 90 q 300 0 379 0 q 219 13 263 0 q 122 75 163 31 q 65 181 81 119 q 60 240 58 211 q 64 303 61 268 l 90 553 q 99 616 94 586 q 118 675 104 646 l 125 692 l 154 744 l 163 765 q 243 870 190 824 q 356 936 296 917 q 439 949 397 949 q 535 928 490 949 q 615 868 581 907 q 665 779 647 829 q 682 672 683 729 l 682 671 l 675 671 l 629 585 l 417 585 l 417 586 q 365 639 403 636 q 361 640 363 639 l 357 640 l 357 635 q 353 602 354 618 q 351 569 351 586 l 339 463 q 335 431 336 446 q 332 399 333 415 q 329 376 331 389 q 328 353 328 363 q 342 322 329 333 q 374 310 354 310 q 405 324 389 311 q 431 361 421 338 l 431 363 l 650 363 l 650 361 q 583 213 632 276 l 558 167 m 436 918 q 363 907 403 918 q 260 850 306 890 q 192 756 215 810 q 173 701 178 729 q 165 642 168 674 l 139 393 q 135 333 136 360 q 142 278 133 306 q 191 183 154 224 q 281 126 228 143 q 319 117 301 119 q 351 115 336 115 q 442 132 399 115 q 520 178 485 149 q 580 247 556 207 q 614 332 604 286 l 449 332 q 417 294 438 308 q 372 279 397 281 l 369 279 q 318 300 339 279 q 299 351 297 321 q 303 408 300 379 q 310 463 307 438 l 322 569 q 326 624 324 596 q 333 682 328 653 q 364 733 339 713 q 419 754 389 754 l 422 754 q 464 738 446 753 q 486 700 482 724 l 651 700 q 637 787 653 747 q 592 856 621 826 q 523 901 563 885 q 436 918 483 918 z "},"D":{"ha":644,"x_min":35,"x_max":690,"o":"m 474 442 q 469 397 472 419 q 464 350 467 374 q 442 305 460 325 q 399 278 424 285 q 380 276 389 276 q 360 275 371 275 l 339 275 q 328 276 332 276 q 319 276 325 276 l 294 276 l 344 747 q 388 749 357 747 q 450 738 418 750 q 478 717 468 731 q 492 688 488 703 q 496 658 496 672 q 494 633 496 643 q 493 622 493 629 l 478 486 l 474 442 m 399 306 q 411 438 406 376 q 416 489 414 463 q 420 538 418 515 q 423 577 422 560 q 424 603 424 594 q 414 627 424 619 q 393 638 404 635 q 363 638 379 640 l 328 304 q 338 304 332 304 q 347 303 344 304 l 363 303 q 378 303 369 303 q 393 304 386 304 l 393 306 l 399 306 m 561 157 q 451 42 521 85 q 301 0 381 0 l 35 0 l 124 854 l 168 935 l 169 947 l 440 947 q 625 869 554 947 q 674 781 658 831 q 685 676 690 732 l 651 357 q 585 200 640 271 l 567 169 q 565 167 567 167 l 561 157 m 111 115 l 353 115 q 449 134 403 115 q 531 186 494 153 q 592 263 568 219 q 621 357 615 307 l 654 676 q 645 770 660 726 q 601 847 631 814 q 530 899 572 881 q 438 918 488 918 l 196 918 l 111 115 z "},"B":{"ha":644,"x_min":36,"x_max":692,"o":"m 557 149 q 446 40 514 81 q 304 0 378 0 l 36 0 l 125 854 l 169 935 l 171 947 l 443 947 q 578 908 518 947 q 669 797 639 868 q 686 675 692 738 q 622 528 678 596 l 615 514 q 653 358 661 439 q 610 238 647 299 q 601 223 607 231 q 589 208 596 215 l 557 149 m 592 531 q 653 656 640 589 q 642 785 667 722 q 564 883 617 847 q 440 918 511 918 l 199 918 l 114 115 l 356 115 q 487 151 426 115 q 585 249 547 186 q 624 378 624 311 q 589 503 625 444 l 581 517 l 592 531 m 424 754 q 476 731 456 754 q 493 676 496 708 q 464 622 489 644 q 407 599 439 599 l 329 599 l 346 754 l 424 754 m 400 628 q 371 639 389 639 l 363 639 l 361 628 l 400 628 m 389 435 q 442 412 421 435 q 460 357 463 389 q 431 302 456 325 q 374 279 406 279 l 296 279 l 311 435 l 389 435 m 367 308 q 338 319 353 319 l 329 319 l 328 308 l 367 308 z "},"A":{"ha":644,"x_min":31,"x_max":682,"o":"m 246 0 l 31 0 l 79 465 q 83 512 81 486 q 90 563 86 538 q 96 607 93 588 q 101 635 99 626 q 110 665 104 650 q 126 697 117 679 l 128 700 q 129 702 129 701 q 131 704 129 703 l 151 740 q 201 830 168 789 q 279 901 235 871 q 438 949 354 949 q 563 917 507 949 q 651 828 619 885 q 681 725 681 775 q 676 622 682 675 l 619 86 l 613 86 l 567 0 l 350 0 l 372 213 l 313 213 l 299 86 l 293 86 l 246 0 m 450 328 l 428 115 l 592 115 l 646 622 q 651 718 651 671 q 625 811 650 765 q 547 891 597 863 q 435 919 497 919 q 294 876 361 919 q 220 808 250 849 q 176 719 190 767 q 171 692 174 711 q 165 649 168 674 q 160 600 163 625 q 156 556 157 575 q 153 543 154 549 q 153 532 153 538 l 108 115 l 272 115 l 294 328 l 450 328 m 468 492 l 313 492 l 329 653 q 331 678 329 664 q 342 708 333 693 q 374 744 357 732 q 418 756 392 756 q 483 708 467 756 q 489 678 490 693 q 485 653 488 664 l 468 492 m 404 522 l 408 564 q 413 586 411 575 q 411 608 414 597 q 365 639 397 639 l 357 639 l 344 522 l 404 522 z "}}}
